<?xml version="1.0" encoding="UTF-8"?>
<!DOCTYPE svg PUBLIC "-//W3C//DTD SVG 1.1//EN" "http://www.w3.org/Graphics/SVG/1.1/DTD/svg11.dtd">
<svg version="1.2" width="769.94mm" height="425.1mm" viewBox="0 0 76994 42510" preserveAspectRatio="xMidYMid" fill-rule="evenodd" stroke-width="28.222" stroke-linejoin="round" xmlns="http://www.w3.org/2000/svg" xmlns:ooo="http://xml.openoffice.org/svg/export" xmlns:xlink="http://www.w3.org/1999/xlink" xmlns:presentation="http://sun.com/xmlns/staroffice/presentation" xmlns:smil="http://www.w3.org/2001/SMIL20/" xmlns:anim="urn:oasis:names:tc:opendocument:xmlns:animation:1.0" xml:space="preserve">
 <defs class="ClipPathGroup">
  <clipPath id="presentation_clip_path" clipPathUnits="userSpaceOnUse">
   <rect x="0" y="0" width="76994" height="42510"/>
  </clipPath>
  <clipPath id="presentation_clip_path_shrink" clipPathUnits="userSpaceOnUse">
   <rect x="76" y="42" width="76841" height="42425"/>
  </clipPath>
 </defs>
 <defs class="TextShapeIndex">
  <g ooo:slide="id1" ooo:id-list="id3 id4"/>
 </defs>
 <defs class="EmbeddedBulletChars">
  <g id="bullet-char-template-57356" transform="scale(0.00048828125,-0.00048828125)">
   <path d="M 580,1141 L 1163,571 580,0 -4,571 580,1141 Z"/>
  </g>
  <g id="bullet-char-template-57354" transform="scale(0.00048828125,-0.00048828125)">
   <path d="M 8,1128 L 1137,1128 1137,0 8,0 8,1128 Z"/>
  </g>
  <g id="bullet-char-template-10146" transform="scale(0.00048828125,-0.00048828125)">
   <path d="M 174,0 L 602,739 174,1481 1456,739 174,0 Z M 1358,739 L 309,1346 659,739 1358,739 Z"/>
  </g>
  <g id="bullet-char-template-10132" transform="scale(0.00048828125,-0.00048828125)">
   <path d="M 2015,739 L 1276,0 717,0 1260,543 174,543 174,936 1260,936 717,1481 1274,1481 2015,739 Z"/>
  </g>
  <g id="bullet-char-template-10007" transform="scale(0.00048828125,-0.00048828125)">
   <path d="M 0,-2 C -7,14 -16,27 -25,37 L 356,567 C 262,823 215,952 215,954 215,979 228,992 255,992 264,992 276,990 289,987 310,991 331,999 354,1012 L 381,999 492,748 772,1049 836,1024 860,1049 C 881,1039 901,1025 922,1006 886,937 835,863 770,784 769,783 710,716 594,584 L 774,223 C 774,196 753,168 711,139 L 727,119 C 717,90 699,76 672,76 641,76 570,178 457,381 L 164,-76 C 142,-110 111,-127 72,-127 30,-127 9,-110 8,-76 1,-67 -2,-52 -2,-32 -2,-23 -1,-13 0,-2 Z"/>
  </g>
  <g id="bullet-char-template-10004" transform="scale(0.00048828125,-0.00048828125)">
   <path d="M 285,-33 C 182,-33 111,30 74,156 52,228 41,333 41,471 41,549 55,616 82,672 116,743 169,778 240,778 293,778 328,747 346,684 L 369,508 C 377,444 397,411 428,410 L 1163,1116 C 1174,1127 1196,1133 1229,1133 1271,1133 1292,1118 1292,1087 L 1292,965 C 1292,929 1282,901 1262,881 L 442,47 C 390,-6 338,-33 285,-33 Z"/>
  </g>
  <g id="bullet-char-template-9679" transform="scale(0.00048828125,-0.00048828125)">
   <path d="M 813,0 C 632,0 489,54 383,161 276,268 223,411 223,592 223,773 276,916 383,1023 489,1130 632,1184 813,1184 992,1184 1136,1130 1245,1023 1353,916 1407,772 1407,592 1407,412 1353,268 1245,161 1136,54 992,0 813,0 Z"/>
  </g>
  <g id="bullet-char-template-8226" transform="scale(0.00048828125,-0.00048828125)">
   <path d="M 346,457 C 273,457 209,483 155,535 101,586 74,649 74,723 74,796 101,859 155,911 209,963 273,989 346,989 419,989 480,963 531,910 582,859 608,796 608,723 608,648 583,586 532,535 482,483 420,457 346,457 Z"/>
  </g>
  <g id="bullet-char-template-8211" transform="scale(0.00048828125,-0.00048828125)">
   <path d="M -4,459 L 1135,459 1135,606 -4,606 -4,459 Z"/>
  </g>
  <g id="bullet-char-template-61548" transform="scale(0.00048828125,-0.00048828125)">
   <path d="M 173,740 C 173,903 231,1043 346,1159 462,1274 601,1332 765,1332 928,1332 1067,1274 1183,1159 1299,1043 1357,903 1357,740 1357,577 1299,437 1183,322 1067,206 928,148 765,148 601,148 462,206 346,322 231,437 173,577 173,740 Z"/>
  </g>
 </defs>
 <defs class="TextEmbeddedBitmaps"/>
 <g>
  <g id="id2" class="Master_Slide">
   <g id="bg-id2" class="Background"/>
   <g id="bo-id2" class="BackgroundObjects"/>
  </g>
 </g>
 <g class="SlideGroup">
  <g>
   <g id="container-id1">
    <g id="id1" class="Slide" clip-path="url(#presentation_clip_path)">
     <g class="Page">
      <g class="com.sun.star.drawing.ClosedBezierShape">
       <g id="id3">
        <rect class="BoundingBox" stroke="none" fill="none" x="177" y="244" width="76512" height="41978"/>
        <path fill="rgb(0,0,0)" stroke="none" d="M 30251,274 C 30141,300 29996,318 29921,313 29850,309 29749,305 29700,305 29568,300 29228,410 29100,499 29025,552 28942,569 28871,552 28796,530 28756,543 28739,591 28721,631 28681,662 28651,662 28615,662 28554,702 28509,750 28465,799 28395,838 28355,838 28311,838 28254,869 28223,904 28192,940 28143,971 28113,971 28082,971 28046,1001 28029,1037 28016,1072 27980,1103 27945,1103 27861,1103 27561,1425 27561,1513 27561,1553 27539,1588 27517,1588 27420,1588 27107,1976 26944,2302 26851,2487 26785,2646 26794,2659 26803,2668 26785,2743 26750,2827 26675,3017 26402,4842 26406,5138 26406,5186 26366,5385 26322,5579 26278,5773 26216,6082 26190,6262 26163,6443 26053,6941 25952,7365 25846,7788 25736,8322 25709,8551 25683,8776 25643,9001 25621,9045 25595,9089 25568,9208 25555,9310 25542,9407 25511,9530 25484,9579 25458,9623 25401,9825 25352,10024 25304,10222 25237,10438 25202,10500 25167,10562 25149,10628 25167,10646 25180,10659 25176,10716 25149,10774 24999,11082 24920,11294 24867,11510 24836,11642 24788,11801 24757,11863 24726,11925 24677,12101 24651,12255 24624,12410 24554,12639 24497,12767 24439,12899 24364,13150 24325,13331 24289,13516 24214,13781 24166,13922 24069,14178 24051,14257 23928,14861 23809,15444 23663,15743 23504,15743 23465,15743 23394,15783 23350,15832 23306,15880 23244,15920 23213,15920 23182,15920 23121,15955 23077,16004 23033,16048 22935,16101 22856,16114 22781,16132 22671,16193 22614,16246 22556,16303 22437,16374 22349,16401 22256,16431 22173,16475 22155,16498 22142,16520 22058,16568 21970,16608 21882,16643 21798,16692 21785,16709 21771,16731 21665,16793 21542,16846 21423,16899 21269,16983 21207,17027 21145,17071 21039,17119 20964,17137 20894,17150 20744,17221 20634,17287 20395,17432 19835,17684 19747,17684 19716,17684 19650,17715 19606,17750 19558,17785 19474,17816 19425,17816 19372,17816 19245,17873 19147,17948 19046,18019 18940,18081 18909,18081 18878,18081 18795,18120 18720,18169 18649,18217 18552,18257 18512,18257 18468,18257 18433,18275 18433,18297 18433,18319 18358,18336 18270,18336 18182,18336 18085,18363 18058,18394 17961,18522 17741,18645 17573,18667 17357,18694 17066,18795 17066,18839 17066,18861 17026,18874 16978,18874 16929,18874 16890,18852 16890,18830 16890,18764 16722,18777 16682,18844 16665,18874 16555,18945 16440,19002 16325,19055 16228,19135 16219,19174 16211,19227 16153,19249 15986,19258 15862,19262 15677,19298 15571,19333 15465,19373 15324,19404 15258,19404 15192,19404 15086,19452 15020,19514 14954,19576 14866,19624 14822,19624 14777,19624 14729,19637 14716,19651 14672,19695 14231,19840 14142,19845 14094,19845 14006,19875 13944,19906 13609,20087 13203,20197 12855,20197 12374,20197 12246,20391 12449,20828 12603,21168 12714,21256 12974,21256 13163,21256 13591,21093 13671,20987 13697,20951 13966,20899 14112,20903 14288,20903 14500,20819 14522,20731 14535,20669 14623,20643 14932,20599 15148,20563 15337,20519 15351,20497 15364,20475 15465,20453 15576,20444 15686,20440 15849,20391 15937,20338 16030,20286 16153,20241 16219,20241 16286,20241 16387,20211 16440,20171 16493,20136 16577,20096 16625,20087 16876,20039 17331,19853 17384,19778 17401,19756 17481,19743 17560,19748 17661,19756 17758,19721 17860,19646 17944,19584 18058,19536 18120,19536 18182,19536 18274,19505 18318,19470 18367,19434 18451,19404 18504,19404 18552,19404 18671,19342 18764,19271 18856,19196 18976,19139 19033,19139 19086,19139 19147,19117 19161,19095 19174,19068 19227,19051 19280,19051 19328,19051 19416,19011 19478,18963 19540,18914 19637,18874 19690,18874 19743,18874 19840,18835 19902,18786 19963,18738 20047,18698 20087,18698 20126,18698 20210,18636 20272,18566 20351,18469 20418,18433 20532,18433 20717,18433 21180,18204 21269,18063 21308,18006 21401,17948 21476,17931 21551,17917 21670,17865 21740,17816 21807,17768 21912,17728 21974,17728 22036,17728 22146,17666 22239,17574 22336,17481 22442,17419 22508,17419 22569,17419 22636,17388 22658,17349 22680,17309 22777,17260 22869,17243 22962,17225 23077,17194 23116,17177 23231,17128 23293,17318 23213,17472 23178,17538 23152,17631 23152,17679 23152,17723 23103,17957 23041,18200 22834,19016 22799,19174 22799,19271 22799,19324 22741,19540 22666,19756 22596,19972 22534,20215 22534,20294 22534,20374 22508,20488 22477,20550 22402,20691 22274,21088 22248,21242 22217,21441 22137,21758 22093,21851 22054,21944 21802,22826 21736,23130 21692,23311 21674,23359 21436,23862 21361,24021 21299,24179 21299,24215 21299,24250 21229,24475 21141,24717 21057,24960 20969,25211 20951,25273 20929,25335 20881,25449 20836,25529 20797,25613 20731,25780 20695,25904 20660,26027 20594,26190 20545,26265 20501,26336 20435,26517 20395,26662 20360,26803 20281,27019 20223,27143 20166,27262 20074,27491 20021,27650 19968,27809 19880,27994 19827,28069 19721,28210 19478,28700 19425,28885 19408,28946 19315,29136 19222,29308 19125,29480 19050,29656 19050,29705 19050,29749 19020,29828 18984,29873 18949,29921 18918,30018 18918,30084 18918,30168 18861,30274 18755,30397 18662,30499 18565,30622 18543,30666 18517,30715 18407,30772 18288,30803 18173,30834 18032,30896 17979,30944 17877,31032 17586,31134 17428,31134 17379,31134 17331,31160 17317,31195 17304,31231 17168,31275 16973,31301 16775,31332 16630,31376 16599,31420 16532,31509 16294,31584 16096,31579 15884,31575 15620,31672 15540,31786 15492,31853 15430,31883 15333,31879 15188,31870 15042,31914 14650,32091 14513,32148 14297,32201 14138,32210 13984,32223 13820,32249 13776,32271 13604,32364 13366,32457 13305,32457 13269,32457 13230,32501 13216,32549 13194,32633 13172,32642 13005,32615 12855,32593 12811,32602 12762,32668 12700,32761 12414,32858 12154,32880 12061,32884 11964,32911 11938,32937 11911,32964 11845,32986 11792,32986 11739,32986 11646,33026 11585,33074 11519,33127 11452,33167 11435,33162 11369,33158 11078,33290 11047,33339 11033,33361 10950,33383 10866,33383 10773,33383 10703,33409 10690,33449 10654,33537 10443,33594 10032,33625 9666,33652 9486,33727 9450,33868 9437,33921 9371,33952 9239,33969 9133,33978 9014,34022 8974,34062 8926,34110 8824,34132 8670,34132 8546,34132 8423,34150 8401,34172 8374,34199 8277,34234 8180,34260 7920,34322 7492,34490 7365,34578 7303,34618 7184,34666 7100,34684 7016,34701 6906,34745 6857,34776 6809,34807 6681,34847 6571,34864 6461,34882 6333,34922 6284,34953 6236,34988 6152,35014 6095,35014 5958,35014 5592,35182 5526,35279 5490,35327 5385,35367 5243,35385 5116,35402 4966,35455 4904,35504 4842,35548 4758,35588 4719,35588 4675,35588 4617,35619 4586,35654 4556,35693 4459,35720 4362,35720 4269,35720 4181,35742 4167,35764 4154,35786 4097,35808 4040,35808 3982,35808 3903,35848 3863,35892 3819,35940 3674,36011 3537,36051 3263,36134 3100,36192 2999,36254 2964,36276 2822,36346 2690,36412 2558,36474 2395,36571 2333,36633 2271,36690 2174,36743 2121,36756 2016,36778 1711,36986 1680,37061 1654,37122 1297,37484 1257,37484 1098,37484 362,38811 296,39226 278,39323 247,39490 225,39601 137,39993 163,40156 375,40575 485,40791 574,40994 574,41029 574,41065 644,41135 732,41184 820,41237 913,41338 940,41409 966,41484 1014,41541 1045,41541 1081,41541 1200,41607 1314,41686 1632,41903 2064,42101 2359,42167 2677,42238 4115,42238 4675,42167 4895,42141 5120,42083 5226,42030 5323,41978 5464,41938 5535,41942 5711,41951 6037,41894 6068,41845 6081,41823 6139,41806 6196,41806 6258,41806 6390,41766 6491,41722 6827,41572 7153,41453 7232,41453 7272,41453 7351,41413 7409,41365 7466,41316 7559,41276 7616,41276 7673,41276 7779,41245 7854,41210 7925,41171 8083,41122 8211,41100 8335,41073 8471,41025 8511,40990 8551,40954 8613,40924 8652,40924 8687,40924 8767,40888 8824,40840 8882,40796 9058,40694 9217,40619 9375,40540 9534,40452 9569,40416 9605,40386 9684,40346 9741,40328 9794,40311 9913,40249 9997,40196 10077,40139 10222,40068 10310,40037 10504,39975 10839,39786 10945,39680 10989,39636 11051,39601 11078,39601 11108,39601 11232,39508 11351,39402 11470,39292 11602,39204 11642,39204 11682,39204 11818,39155 11942,39093 12070,39032 12189,38983 12215,38983 12237,38983 12277,38948 12299,38904 12321,38860 12427,38763 12533,38692 12639,38622 12811,38494 12921,38406 13031,38317 13234,38194 13380,38128 13521,38066 13706,37956 13785,37881 13869,37810 13953,37748 13975,37748 13997,37748 14023,37691 14037,37625 14059,37524 14103,37484 14253,37427 14358,37382 14469,37352 14500,37352 14530,37352 14553,37321 14553,37285 14553,37250 14605,37188 14667,37144 14733,37100 14910,36946 15060,36805 15214,36659 15443,36492 15571,36426 15743,36342 15853,36245 15972,36073 16065,35940 16175,35821 16219,35804 16308,35768 16907,35235 17035,35076 17079,35019 17150,34961 17198,34948 17256,34931 17287,34882 17287,34807 17287,34732 17344,34640 17463,34534 17560,34446 17639,34340 17639,34296 17639,34256 17679,34185 17732,34141 17780,34102 17864,33987 17913,33890 17966,33793 18045,33674 18098,33621 18283,33436 18438,33233 18499,33092 18530,33012 18640,32845 18737,32721 18839,32593 18918,32466 18918,32435 18918,32404 18962,32320 19020,32249 19073,32183 19187,31980 19271,31804 19377,31579 19452,31478 19522,31460 19575,31447 19641,31407 19672,31372 19699,31337 19760,31310 19809,31310 19853,31310 19990,31262 20109,31200 20228,31138 20356,31090 20391,31090 20475,31090 21008,30825 21026,30772 21035,30754 21158,30737 21299,30737 21441,30737 21573,30715 21586,30693 21599,30671 21679,30649 21758,30649 21842,30649 21930,30622 21957,30587 21983,30556 22124,30516 22270,30499 22503,30472 22883,30366 23130,30256 23178,30234 23328,30194 23460,30164 23593,30133 23725,30093 23747,30075 23773,30058 23897,30027 24029,30009 24197,29987 24289,29947 24355,29873 24430,29784 24488,29767 24677,29767 24805,29767 24920,29749 24933,29727 24946,29705 25021,29678 25101,29665 25180,29652 25356,29612 25489,29573 25621,29533 25815,29502 25921,29502 26053,29502 26106,29484 26106,29436 26106,29348 26402,29215 26472,29273 26534,29326 26887,29290 26926,29233 26940,29211 27015,29193 27098,29193 27182,29193 27253,29167 27266,29132 27284,29092 27398,29061 27614,29043 27791,29026 27976,28995 28024,28977 28073,28955 28196,28916 28302,28885 28434,28841 28487,28801 28487,28744 28487,28647 28598,28594 28677,28655 28783,28739 29008,28761 29047,28691 29092,28611 29779,28426 29899,28466 29956,28483 30035,28466 30106,28422 30168,28378 30313,28338 30432,28333 30547,28325 30683,28294 30732,28272 30780,28245 30855,28223 30904,28223 30952,28223 31001,28197 31014,28162 31036,28104 31327,28056 31759,28034 31848,28029 31936,28012 31953,27994 31971,27972 32046,27959 32117,27959 32187,27959 32302,27910 32377,27848 32447,27787 32544,27738 32589,27738 32633,27738 32686,27716 32699,27694 32716,27663 32844,27654 33029,27668 33268,27685 33334,27676 33356,27628 33369,27588 33440,27562 33532,27562 33616,27562 33700,27544 33713,27518 33726,27496 33810,27474 33894,27474 33978,27474 34079,27456 34123,27434 34163,27412 34326,27372 34485,27341 34643,27315 34789,27275 34807,27253 34829,27235 34965,27231 35111,27244 35336,27262 35384,27253 35420,27191 35450,27138 35495,27121 35565,27138 35627,27156 35799,27121 35971,27059 36134,26997 36385,26936 36522,26922 36663,26905 36787,26874 36800,26852 36817,26830 36870,26812 36923,26812 36976,26812 37078,26781 37148,26746 37214,26711 37316,26680 37373,26680 37426,26680 37497,26653 37523,26618 37576,26552 37867,26499 38154,26503 38242,26503 38326,26486 38343,26459 38356,26437 38458,26415 38568,26415 38678,26415 38811,26393 38864,26362 38917,26336 39102,26305 39274,26301 39446,26296 39666,26270 39759,26243 39856,26217 39984,26195 40045,26195 40107,26195 40204,26146 40257,26089 40345,25992 40385,25983 40575,26005 40720,26023 40844,26005 40971,25957 41086,25908 41205,25890 41285,25908 41377,25930 41439,25917 41505,25860 41558,25807 41695,25767 41862,25749 42321,25705 42837,25613 42881,25573 42907,25551 42965,25533 43009,25533 43057,25533 43185,25507 43300,25472 43410,25436 43631,25383 43789,25357 43948,25326 44089,25282 44107,25255 44124,25229 44279,25207 44486,25207 44759,25203 44857,25185 44923,25128 44980,25075 45081,25048 45240,25048 45368,25048 45509,25031 45553,25004 45597,24982 45747,24951 45888,24934 46034,24920 46188,24894 46237,24872 46285,24854 46515,24801 46744,24762 46973,24717 47185,24669 47207,24651 47233,24634 47441,24607 47670,24590 47899,24572 48208,24528 48353,24488 48499,24453 48667,24422 48728,24422 48790,24422 49068,24369 49346,24312 49623,24250 50034,24188 50250,24171 50527,24149 50770,24100 51048,23999 51361,23888 51573,23849 51974,23813 52265,23791 52587,23752 52697,23730 52807,23703 53015,23672 53160,23659 53306,23650 53495,23619 53579,23593 53663,23571 53786,23549 53857,23549 53923,23549 54011,23531 54055,23509 54095,23487 54311,23443 54527,23417 54748,23386 54964,23346 55012,23324 55061,23306 55211,23280 55343,23271 55475,23258 55735,23218 55916,23183 56097,23143 56397,23103 56578,23090 56759,23077 57010,23046 57129,23020 57252,22998 57495,22958 57676,22931 57852,22905 58121,22843 58271,22799 58417,22755 58690,22707 58871,22689 59052,22676 59303,22645 59422,22623 59545,22601 59828,22570 60053,22557 60273,22539 60524,22508 60604,22486 60679,22464 60807,22446 60886,22446 60961,22446 61040,22424 61058,22398 61076,22367 61164,22358 61292,22371 61420,22385 61534,22371 61605,22336 61715,22274 62751,22138 63095,22138 63192,22138 63285,22120 63298,22102 63311,22080 63545,22049 63819,22036 64092,22019 64387,21988 64471,21961 64555,21939 64798,21917 65009,21917 65221,21917 65402,21900 65415,21878 65428,21855 65803,21825 66244,21807 66720,21789 67077,21754 67113,21728 67148,21697 67426,21675 67818,21670 68184,21661 68594,21631 68771,21591 68943,21556 69278,21529 69520,21529 69807,21534 69997,21516 70067,21476 70133,21445 70371,21414 70663,21406 71708,21375 72232,21348 72740,21304 73357,21251 74645,21247 74680,21295 74689,21317 74671,21437 74631,21564 74565,21789 74565,21798 74667,21904 74750,21992 74790,22005 74944,21983 75165,21948 75522,21780 75738,21609 75831,21534 75981,21463 76073,21450 76453,21388 76801,20934 76651,20696 76633,20669 76541,20581 76444,20506 76267,20365 76263,20365 75919,20391 75725,20409 75028,20431 74376,20440 73719,20453 73101,20480 73004,20502 72907,20528 72471,20555 72034,20568 71597,20581 71064,20621 70843,20660 70627,20700 70239,20740 69983,20749 69375,20771 68458,20846 67823,20925 67545,20956 67148,20987 66945,20987 66742,20991 66557,21004 66531,21022 66504,21035 66235,21075 65931,21106 65627,21132 65137,21181 64846,21212 64335,21260 64008,21300 63413,21388 63254,21414 63012,21437 62870,21441 62729,21445 62606,21463 62593,21485 62579,21503 62456,21520 62319,21520 62183,21520 61927,21551 61759,21586 61345,21679 60974,21732 60917,21710 60890,21701 60683,21723 60454,21767 59894,21864 59523,21908 58871,21961 58567,21988 58262,22023 58187,22049 58117,22072 57945,22102 57812,22116 57424,22160 57010,22230 56820,22296 56723,22327 56516,22363 56357,22380 56198,22393 55982,22433 55872,22468 55762,22499 55524,22539 55343,22557 55162,22574 54902,22618 54770,22654 54527,22720 54417,22742 53601,22861 53359,22896 53090,22949 53006,22976 52922,23002 52724,23033 52565,23042 52406,23051 52190,23086 52080,23125 51969,23165 51780,23196 51661,23196 51537,23196 51370,23218 51286,23245 51105,23297 50766,23359 50342,23417 50175,23439 50007,23469 49967,23487 49928,23500 49760,23531 49588,23558 48834,23659 48054,23791 47824,23853 47727,23880 47577,23902 47489,23902 47401,23902 47198,23941 47039,23990 46885,24038 46638,24082 46497,24082 46321,24087 46224,24113 46188,24157 46153,24206 46030,24232 45761,24250 45505,24268 45359,24299 45306,24347 45249,24396 45042,24444 44671,24488 43701,24612 43525,24647 43388,24744 43317,24792 43229,24823 43194,24814 43071,24766 42052,24916 41210,25114 40945,25176 40672,25225 40601,25225 40535,25225 40429,25255 40367,25295 40288,25348 40209,25361 40081,25339 39948,25317 39869,25330 39790,25379 39732,25419 39666,25436 39640,25419 39613,25405 39512,25423 39406,25463 39305,25502 39080,25551 38908,25573 38731,25595 38546,25644 38489,25683 38436,25723 38339,25754 38277,25754 38132,25754 37823,25864 37801,25926 37792,25952 37730,25961 37655,25943 37585,25930 37501,25939 37475,25961 37422,26005 37157,26045 36791,26076 36712,26084 36623,26111 36593,26142 36562,26173 36465,26195 36377,26195 36288,26195 36191,26226 36160,26261 36125,26301 36068,26318 36002,26301 35936,26283 35843,26309 35750,26367 35631,26437 35525,26459 35278,26459 34961,26459 34789,26495 34494,26618 34414,26653 34330,26671 34304,26658 34282,26645 34128,26671 33964,26724 33797,26772 33603,26812 33537,26812 33470,26812 33391,26847 33360,26887 33316,26944 33250,26962 33087,26953 32941,26949 32813,26975 32699,27033 32602,27081 32491,27121 32447,27121 32408,27121 32359,27143 32346,27169 32328,27196 32262,27200 32192,27187 32121,27174 32055,27178 32037,27205 32024,27231 31940,27253 31856,27253 31773,27253 31671,27271 31627,27293 31499,27355 31257,27421 31023,27456 30904,27469 30754,27509 30692,27540 30631,27571 30485,27606 30362,27619 30243,27632 30084,27676 30009,27712 29938,27751 29819,27782 29744,27782 29674,27782 29572,27813 29528,27848 29480,27884 29396,27915 29343,27915 29286,27915 29228,27937 29215,27959 29197,27985 29092,28003 28981,27998 28721,27990 28364,28069 28267,28157 28227,28192 28117,28223 28020,28223 27923,28223 27799,28254 27742,28294 27667,28347 27583,28360 27411,28342 27217,28325 27173,28333 27129,28404 27090,28461 27023,28488 26904,28488 26807,28488 26710,28514 26679,28554 26649,28589 26569,28620 26499,28620 26428,28620 26335,28638 26291,28660 26053,28788 25850,28849 25564,28880 25392,28902 25198,28938 25136,28964 25074,28986 24907,29030 24761,29061 24616,29088 24430,29140 24351,29176 24272,29211 24144,29238 24064,29238 23985,29238 23897,29260 23866,29290 23835,29321 23707,29357 23584,29374 23152,29432 23002,29471 22856,29573 22777,29626 22627,29683 22521,29701 22278,29740 21965,29842 21833,29930 21776,29965 21683,29987 21613,29974 21485,29947 21194,30018 21057,30106 21008,30137 20929,30164 20872,30164 20819,30164 20761,30181 20748,30208 20735,30230 20634,30252 20528,30252 20422,30252 20320,30274 20307,30296 20285,30331 20259,30327 20215,30291 20131,30225 20135,30172 20241,29965 20290,29868 20329,29749 20329,29696 20329,29577 20519,29185 20616,29105 20651,29074 20682,29004 20682,28942 20682,28885 20744,28717 20814,28567 20889,28422 20947,28267 20947,28223 20947,28175 20982,28113 21030,28082 21145,27998 21255,27765 21255,27593 21255,27504 21291,27399 21344,27341 21392,27284 21432,27209 21432,27169 21432,27130 21463,27037 21502,26966 21591,26803 21829,26151 21829,26071 21829,26040 21899,25864 21983,25683 22067,25502 22137,25322 22137,25277 22137,25238 22164,25154 22195,25092 22230,25031 22270,24916 22283,24837 22300,24757 22362,24590 22424,24457 22486,24329 22534,24171 22534,24109 22534,24047 22561,23968 22596,23937 22631,23902 22680,23756 22711,23611 22737,23469 22790,23249 22825,23130 22856,23006 22905,22804 22931,22671 22953,22539 23002,22402 23028,22367 23085,22296 23160,22116 23284,21741 23469,21176 23504,21013 23504,20762 23504,20519 23566,20316 23694,20158 23765,20069 23937,19465 23972,19183 23989,19051 24038,18866 24082,18777 24131,18685 24166,18539 24166,18447 24166,18244 24351,17706 24466,17578 24580,17446 24677,17185 24761,16802 24854,16356 24977,16149 25220,16026 25458,15907 25665,15739 25665,15668 25665,15642 25705,15602 25753,15589 25802,15576 25842,15545 25842,15523 25842,15505 25894,15466 25965,15439 26190,15342 26635,15100 26754,15003 27094,14734 27151,14694 27288,14663 27372,14645 27500,14562 27592,14460 27680,14368 27835,14240 27936,14178 28042,14121 28135,14041 28148,14006 28161,13971 28240,13905 28320,13865 28399,13825 28505,13755 28554,13706 29255,13036 29374,12930 29577,12811 29656,12762 29753,12661 29788,12582 29837,12480 29890,12436 29956,12436 30022,12436 30084,12388 30132,12304 30176,12229 30229,12171 30256,12171 30278,12171 30573,11889 30913,11541 31649,10796 31693,10747 31808,10544 31861,10456 31914,10377 31927,10363 31940,10350 32033,10214 32139,10055 32320,9773 32430,9623 32527,9512 32558,9481 32619,9371 32672,9270 32725,9168 32787,9085 32809,9085 32835,9085 32853,9036 32853,8979 32853,8807 32937,8635 33100,8467 33250,8308 33272,8247 33475,7484 33581,7060 33691,6359 33717,5887 33726,5693 33757,5486 33779,5424 33806,5358 33814,4970 33801,4454 33775,3294 33748,3100 33572,2514 33418,2007 33360,1892 33065,1548 32924,1389 32765,1195 32716,1125 32558,904 32002,600 31464,437 31367,410 31248,371 31199,349 31151,331 31032,305 30935,291 30838,278 30688,261 30604,247 30520,238 30362,247 30251,274 Z M 30626,1367 C 30639,1389 30745,1412 30860,1412 30975,1416 31133,1451 31221,1500 31305,1544 31420,1601 31473,1628 31526,1654 31627,1760 31693,1861 31759,1967 31852,2077 31892,2108 31936,2139 31971,2205 31971,2254 31971,2298 32020,2382 32081,2435 32143,2487 32192,2558 32192,2598 32192,2633 32227,2704 32275,2752 32412,2911 32496,3475 32496,4322 32500,5160 32461,5486 32297,6007 32240,6196 32192,6395 32192,6448 32192,6505 32161,6606 32125,6677 32090,6743 32059,6871 32059,6955 32059,7038 32033,7158 31998,7224 31940,7343 31861,7665 31874,7731 31879,7748 31834,7867 31777,7995 31715,8123 31658,8278 31640,8348 31627,8414 31579,8507 31535,8551 31442,8644 31310,8895 31310,8983 31310,9014 31279,9041 31244,9041 31208,9041 31164,9093 31151,9160 31133,9230 31063,9345 30988,9420 30917,9495 30838,9601 30811,9649 30780,9702 30653,9892 30529,10077 30401,10258 30295,10430 30295,10452 30295,10474 30225,10540 30141,10593 30057,10650 29956,10756 29912,10835 29872,10910 29793,10998 29735,11029 29678,11060 29634,11109 29634,11144 29634,11175 29585,11228 29524,11254 29462,11281 29413,11338 29413,11387 29413,11431 29387,11466 29361,11466 29330,11466 29131,11633 28920,11841 28708,12048 28523,12216 28505,12216 28465,12216 28368,12304 28113,12555 28011,12661 27896,12745 27861,12745 27826,12745 27755,12789 27702,12842 27650,12899 27553,13001 27482,13075 27411,13146 27244,13274 27107,13353 26970,13437 26829,13552 26790,13609 26754,13666 26693,13715 26662,13715 26631,13715 26516,13794 26410,13896 26168,14116 25855,14332 25775,14332 25740,14332 25692,14372 25665,14420 25564,14615 25423,14398 25489,14143 25555,13896 25758,13124 25797,12987 25815,12912 25872,12754 25921,12635 26058,12295 26265,11625 26393,11113 26459,10857 26538,10580 26569,10496 26693,10174 27059,8842 27187,8247 27239,7991 27336,7576 27398,7321 27460,7065 27522,6796 27535,6725 27654,6112 27738,5530 27782,5028 27901,3577 28082,2726 28355,2293 28474,2108 28875,1808 29008,1808 29039,1808 29061,1791 29061,1764 29061,1716 29383,1544 29480,1544 29515,1544 29546,1517 29546,1482 29546,1438 29630,1412 29846,1389 30009,1376 30172,1354 30207,1350 30357,1314 30600,1328 30626,1367 Z M 17772,32086 C 17772,32139 17754,32201 17728,32214 17705,32227 17613,32355 17525,32492 17432,32629 17335,32765 17309,32787 17278,32814 17203,32933 17141,33056 17079,33180 16996,33308 16951,33343 16912,33378 16797,33511 16704,33634 16612,33762 16506,33868 16471,33868 16431,33868 16405,33912 16405,33974 16405,34044 16374,34093 16321,34110 16272,34124 16219,34172 16206,34216 16193,34265 16114,34344 16025,34401 15942,34459 15862,34551 15849,34604 15836,34657 15783,34715 15739,34728 15695,34745 15655,34776 15655,34803 15655,34860 15359,35147 15298,35147 15276,35147 15258,35173 15258,35208 15258,35288 14945,35557 14747,35654 14654,35698 14561,35791 14508,35896 14460,35993 14394,36073 14358,36073 14328,36073 14244,36121 14178,36183 14107,36240 14010,36293 13957,36302 13904,36311 13865,36355 13856,36417 13847,36474 13794,36536 13741,36558 13684,36580 13582,36646 13516,36708 13450,36769 13357,36822 13318,36822 13278,36822 13221,36871 13190,36928 13159,36986 13013,37109 12872,37202 12731,37299 12612,37391 12612,37409 12612,37427 12555,37466 12480,37488 12409,37515 12348,37563 12348,37594 12348,37629 12312,37665 12264,37682 12220,37696 12136,37744 12083,37793 12026,37841 11938,37881 11880,37881 11823,37881 11721,37934 11655,37995 11360,38273 11161,38410 10959,38476 10835,38520 10707,38586 10667,38626 10628,38666 10513,38745 10412,38807 10310,38869 10156,38970 10068,39036 9980,39107 9891,39160 9869,39160 9843,39160 9741,39217 9640,39283 9543,39349 9380,39429 9278,39459 9181,39486 9040,39570 8970,39645 8895,39720 8793,39777 8727,39777 8665,39777 8577,39817 8533,39865 8489,39914 8414,39953 8370,39953 8326,39953 8211,39993 8114,40042 8017,40090 7898,40130 7845,40130 7797,40130 7695,40178 7625,40240 7554,40297 7422,40359 7329,40372 7241,40390 7104,40430 7025,40465 6950,40500 6831,40527 6760,40527 6690,40527 6615,40544 6593,40566 6513,40641 5953,40831 5720,40862 5592,40879 5332,40941 5138,40999 4097,41312 3030,41276 2227,40897 1861,40725 1663,40531 1570,40262 1469,39945 1460,39557 1561,39557 1623,39557 1676,39429 1676,39279 1676,39142 2033,38353 2157,38216 2359,37991 2624,37748 2690,37726 2730,37713 2783,37647 2809,37572 2858,37440 2880,37422 3096,37378 3162,37360 3250,37312 3294,37268 3396,37162 3599,37061 3793,37021 3876,37003 4000,36950 4066,36906 4128,36858 4198,36822 4225,36822 4247,36822 4291,36796 4317,36765 4344,36730 4450,36681 4551,36650 4657,36620 4763,36575 4789,36553 4851,36500 5495,36293 5587,36293 5627,36293 5702,36258 5751,36214 5804,36170 5931,36099 6042,36055 6152,36011 6341,35927 6461,35870 6584,35813 6703,35764 6730,35764 6756,35764 6857,35724 6959,35676 7056,35627 7179,35588 7223,35588 7272,35588 7334,35557 7365,35522 7395,35486 7475,35455 7537,35455 7603,35455 7775,35385 7920,35297 8061,35208 8260,35129 8352,35120 8449,35107 8582,35067 8648,35032 8714,34997 8811,34970 8859,34970 8904,34970 9071,34904 9230,34820 9384,34737 9627,34648 9768,34622 9909,34595 10046,34556 10072,34538 10099,34516 10209,34468 10319,34428 10429,34388 10637,34309 10782,34247 10928,34185 11122,34132 11210,34132 11298,34132 11400,34106 11430,34075 11497,34009 11840,33890 12096,33846 12198,33828 12259,33797 12259,33758 12259,33709 12312,33691 12431,33691 12524,33691 12621,33665 12647,33634 12674,33608 12802,33533 12939,33471 13075,33414 13185,33339 13185,33308 13185,33268 13252,33250 13388,33250 13604,33250 13865,33193 14098,33092 14173,33056 14261,33030 14297,33030 14332,33030 14398,33004 14447,32968 14491,32933 14575,32915 14632,32929 14685,32942 14760,32929 14791,32902 14879,32827 15302,32677 15421,32677 15474,32677 15527,32660 15540,32637 15554,32615 15642,32585 15730,32567 15818,32549 16021,32479 16175,32408 16330,32342 16577,32249 16727,32210 16876,32166 17062,32104 17132,32069 17291,31985 17538,31941 17675,31963 17741,31976 17772,32011 17772,32086 Z"/>
       </g>
      </g>
      <g class="com.sun.star.drawing.ClosedBezierShape">
       <g id="id4">
        <rect class="BoundingBox" stroke="none" fill="none" x="24599" y="17300" width="39804" height="9850"/>
        <path fill="rgb(0,0,0)" stroke="none" d="M 51687,17354 C 51471,17377 51203,17420 51094,17448 50984,17477 50783,17526 50642,17555 50502,17589 50280,17665 50149,17724 50018,17783 49883,17834 49852,17835 49817,17836 49677,17908 49539,17994 49396,18083 49236,18169 49178,18184 49122,18199 48953,18298 48809,18400 48663,18502 48450,18641 48338,18705 48095,18836 47734,19175 47556,19437 47489,19542 47390,19642 47338,19661 47290,19684 47134,19774 47000,19863 46784,20006 46732,20068 46608,20337 46529,20506 46468,20670 46469,20705 46475,20909 46131,21355 45839,21513 45240,21848 44858,22042 44814,22043 44783,22044 44714,22085 44658,22134 44602,22187 44527,22214 44501,22206 44470,22195 44330,22245 44191,22318 44053,22395 43912,22454 43882,22455 43851,22456 43733,22495 43620,22544 43271,22687 42558,22909 42212,22974 41817,23051 41059,23073 40691,23019 40261,22955 39931,22798 39801,22601 39741,22504 39650,22391 39595,22350 39541,22305 39499,22243 39498,22204 39493,22165 39453,22030 39401,21903 39286,21611 39274,21330 39367,20921 39461,20504 39552,20300 39769,20033 39927,19836 40489,19435 40608,19431 40634,19431 40699,19403 40751,19367 40907,19269 41508,19136 41681,19161 41765,19176 41890,19231 41959,19293 42030,19351 42120,19421 42165,19450 42210,19478 42252,19537 42262,19584 42323,19847 42422,20032 42575,20181 42675,20272 42779,20338 42809,20324 42844,20311 42923,20321 42991,20344 43093,20380 43150,20366 43328,20267 43450,20194 43573,20079 43629,19992 43704,19853 43708,19814 43659,19649 43629,19543 43572,19421 43536,19371 43503,19325 43470,19257 43469,19220 43466,19112 43159,18711 42951,18538 42486,18154 42182,18039 41670,18054 41339,18064 40695,18202 40600,18282 40575,18304 40506,18361 40450,18410 40395,18459 40294,18500 40228,18502 40166,18504 39991,18565 39844,18642 39696,18715 39557,18778 39535,18779 39513,18779 39486,18806 39474,18840 39462,18875 39359,18959 39242,19027 39051,19144 38618,19575 38522,19753 38501,19797 38433,19914 38379,20018 38325,20123 38270,20213 38253,20227 38241,20240 38177,20358 38115,20487 38041,20656 37991,20881 37952,21236 37886,21840 37849,21906 37553,21915 37289,21923 36989,22102 36811,22355 36727,22473 36606,22580 36488,22634 36385,22684 36284,22742 36272,22765 36239,22825 35806,23107 35570,23225 35471,23275 35376,23350 35364,23393 35352,23432 35221,23509 35069,23569 34921,23624 34769,23702 34730,23733 34696,23768 34557,23832 34425,23883 34294,23930 34072,24034 33929,24111 33786,24193 33581,24279 33472,24304 33362,24333 33196,24372 33099,24396 32644,24512 32191,24444 31965,24233 31833,24108 31810,24058 31814,23904 31816,23699 31898,23457 32029,23282 32263,22976 32704,22203 32726,22064 32767,21807 32666,21532 32449,21325 32340,21226 32209,21118 32155,21094 32003,21026 31704,21051 31509,21156 31334,21250 31083,21545 31014,21747 30994,21803 30955,21852 30938,21852 30916,21853 30866,21944 30825,22056 30788,22173 30706,22380 30640,22524 30578,22666 30492,22878 30450,22991 30415,23107 30309,23277 30228,23373 30143,23466 30023,23619 29956,23719 29892,23815 29798,23911 29741,23934 29689,23958 29616,24028 29583,24093 29550,24158 29472,24238 29411,24270 29268,24346 29015,24593 28918,24742 28872,24819 28807,24864 28741,24866 28683,24868 28636,24886 28636,24903 28639,25006 28032,25528 27909,25532 27887,25533 27848,25559 27822,25594 27720,25721 27164,25870 26759,25877 26256,25884 26130,25827 26061,25556 25962,25166 25942,24807 25999,24485 26048,24227 26086,24144 26223,24000 26313,23903 26408,23823 26425,23822 26447,23822 26511,23752 26561,23669 26651,23542 26658,23491 26625,23295 26571,22933 26510,22812 26298,22634 25962,22353 25558,22377 25262,22703 25053,22931 24959,23164 24814,23784 24743,24081 24672,24366 24651,24413 24590,24582 24580,25296 24640,25520 24669,25635 24714,25809 24735,25902 24786,26140 25063,26593 25199,26671 25266,26708 25337,26757 25360,26781 25405,26828 25709,26947 26119,27085 26360,27167 27180,27169 27324,27092 27363,27070 27516,27005 27659,26950 27803,26894 27952,26829 27986,26807 28020,26785 28125,26735 28212,26694 28300,26653 28402,26573 28441,26517 28483,26447 28548,26411 28628,26408 28712,26406 28819,26334 28999,26162 29137,26030 29274,25919 29310,25918 29389,25916 29673,25655 29671,25582 29669,25514 29932,25301 30025,25298 30064,25297 30103,25266 30115,25232 30144,25158 30580,25013 30678,25045 30714,25056 30774,25115 30806,25164 30838,25228 31027,25333 31295,25449 31719,25630 31728,25633 32364,25653 32850,25669 33074,25658 33289,25609 33596,25540 34193,25270 34281,25161 34311,25126 34399,25067 34477,25035 34555,25008 34677,24935 34745,24882 34819,24829 34923,24766 34985,24747 35046,24729 35124,24687 35158,24656 35193,24625 35340,24557 35485,24505 35629,24455 35750,24391 35759,24365 35767,24339 35814,24316 35863,24315 35916,24313 36063,24236 36193,24143 36482,23938 36487,23938 36714,23837 36818,23796 36914,23737 36930,23711 36985,23620 37172,23521 37352,23485 37448,23465 37688,23360 37888,23247 L 38248,23044 38373,23126 C 38441,23171 38577,23286 38672,23386 38904,23628 39288,23915 39372,23913 39407,23911 39518,23947 39616,23987 39939,24128 41740,24185 42200,24074 42336,24040 42584,23938 42701,23871 42784,23826 43192,23741 43214,23762 43223,23770 43298,23738 43380,23693 43636,23549 43680,23530 43737,23529 43768,23528 43846,23499 43912,23463 43977,23428 44095,23385 44173,23367 44480,23297 44895,23144 45042,23037 45128,22979 45241,22916 45298,22905 45425,22876 45603,22760 45692,22646 45730,22598 45808,22549 45866,22539 45922,22528 46027,22483 46101,22438 46339,22294 46530,22331 46797,22567 46928,22683 47117,22814 47220,22858 47725,23087 48450,23146 49034,23006 49221,22962 49450,22912 49533,22901 49744,22870 50630,22561 50712,22494 50746,22463 50903,22391 51061,22331 51218,22275 51466,22169 51614,22097 51762,22024 51901,21964 51919,21964 51989,21962 52710,21564 52835,21462 52904,21405 53016,21320 53086,21279 53228,21190 53328,21127 53510,21002 53704,20868 53987,20877 54331,21021 54697,21177 54986,21258 55358,21303 55721,21352 56841,21319 57012,21258 57081,21235 57239,21200 57358,21184 58373,21039 58759,20955 59296,20781 59567,20692 59820,20620 59856,20619 59891,20618 59957,20599 60000,20576 60039,20550 60353,20438 60699,20321 61044,20204 61397,20065 61483,20020 61757,19871 61971,19788 62073,19785 62126,19783 62253,19742 62348,19695 62448,19650 62596,19594 62675,19575 62758,19555 62885,19496 62954,19443 63027,19389 63170,19309 63279,19258 63388,19208 63535,19122 63608,19069 63682,19011 63760,18966 63786,18965 63808,18964 63887,18907 63955,18832 64027,18757 64128,18699 64194,18697 64313,18694 64406,18554 64401,18391 64398,18298 64323,18287 64118,18353 64043,18381 63873,18433 63741,18480 63610,18521 63414,18574 63303,18594 63194,18620 63019,18667 62910,18708 62801,18747 62517,18835 62276,18907 62036,18974 61546,19133 61184,19255 60825,19381 60401,19518 60243,19556 59403,19769 59149,19828 58906,19856 58762,19878 58389,19953 58074,20031 57137,20259 56349,20325 56071,20196 55986,20156 55793,20008 55633,19863 55471,19714 55245,19554 55133,19501 54851,19368 54673,19152 54589,18837 54550,18698 54488,18542 54451,18495 54414,18450 54386,18378 54385,18334 54380,18155 53761,17699 53203,17463 52984,17371 52324,17275 52127,17306 52104,17307 51906,17330 51687,17354 Z M 52642,18313 C 52664,18334 52718,18349 52766,18348 52890,18344 53310,18699 53426,18901 53542,19112 53552,19274 53475,19515 53390,19770 53132,20171 53015,20222 52962,20249 52824,20347 52704,20444 52588,20542 52410,20650 52314,20678 52218,20710 52122,20761 52096,20792 52041,20861 51554,21120 51466,21122 51431,21123 51253,21201 51074,21300 50766,21463 50073,21727 49787,21787 49441,21865 48495,21931 48401,21891 48365,21871 48240,21824 48128,21784 47963,21720 47918,21684 47893,21577 47858,21425 47948,21045 48042,20966 48076,20935 48105,20840 48102,20755 48093,20443 48367,19853 48526,19840 48539,19839 48612,19786 48681,19716 48900,19504 49150,19314 49311,19236 49398,19191 49466,19142 49466,19120 49465,19103 49501,19085 49545,19084 49585,19078 49697,19028 49793,18969 49888,18907 50010,18840 50062,18816 50110,18793 50165,18749 50183,18727 50195,18701 50252,18678 50305,18677 50362,18675 50440,18647 50488,18611 50584,18549 50959,18422 51231,18368 51780,18258 52537,18231 52642,18313 Z"/>
       </g>
      </g>
     </g>
    </g>
   </g>
  </g>
 </g>
</svg>