<?xml version="1.0" encoding="UTF-8"?>
<!DOCTYPE svg PUBLIC "-//W3C//DTD SVG 1.1//EN" "http://www.w3.org/Graphics/SVG/1.1/DTD/svg11.dtd">
<svg version="1.2" width="962.43mm" height="531.38mm" viewBox="0 0 96243 53138" preserveAspectRatio="xMidYMid" fill-rule="evenodd" stroke-width="28.222" stroke-linejoin="round" xmlns="http://www.w3.org/2000/svg" xmlns:ooo="http://xml.openoffice.org/svg/export" xmlns:xlink="http://www.w3.org/1999/xlink" xmlns:presentation="http://sun.com/xmlns/staroffice/presentation" xmlns:smil="http://www.w3.org/2001/SMIL20/" xmlns:anim="urn:oasis:names:tc:opendocument:xmlns:animation:1.0" xml:space="preserve">
 <defs class="ClipPathGroup">
  <clipPath id="presentation_clip_path" clipPathUnits="userSpaceOnUse">
   <rect x="0" y="0" width="96243" height="53138"/>
  </clipPath>
  <clipPath id="presentation_clip_path_shrink" clipPathUnits="userSpaceOnUse">
   <rect x="96" y="53" width="96051" height="53032"/>
  </clipPath>
 </defs>
 <defs class="TextShapeIndex">
  <g ooo:slide="id1" ooo:id-list="id3 id4 id5 id6"/>
 </defs>
 <defs class="EmbeddedBulletChars">
  <g id="bullet-char-template-57356" transform="scale(0.00048828125,-0.00048828125)">
   <path d="M 580,1141 L 1163,571 580,0 -4,571 580,1141 Z"/>
  </g>
  <g id="bullet-char-template-57354" transform="scale(0.00048828125,-0.00048828125)">
   <path d="M 8,1128 L 1137,1128 1137,0 8,0 8,1128 Z"/>
  </g>
  <g id="bullet-char-template-10146" transform="scale(0.00048828125,-0.00048828125)">
   <path d="M 174,0 L 602,739 174,1481 1456,739 174,0 Z M 1358,739 L 309,1346 659,739 1358,739 Z"/>
  </g>
  <g id="bullet-char-template-10132" transform="scale(0.00048828125,-0.00048828125)">
   <path d="M 2015,739 L 1276,0 717,0 1260,543 174,543 174,936 1260,936 717,1481 1274,1481 2015,739 Z"/>
  </g>
  <g id="bullet-char-template-10007" transform="scale(0.00048828125,-0.00048828125)">
   <path d="M 0,-2 C -7,14 -16,27 -25,37 L 356,567 C 262,823 215,952 215,954 215,979 228,992 255,992 264,992 276,990 289,987 310,991 331,999 354,1012 L 381,999 492,748 772,1049 836,1024 860,1049 C 881,1039 901,1025 922,1006 886,937 835,863 770,784 769,783 710,716 594,584 L 774,223 C 774,196 753,168 711,139 L 727,119 C 717,90 699,76 672,76 641,76 570,178 457,381 L 164,-76 C 142,-110 111,-127 72,-127 30,-127 9,-110 8,-76 1,-67 -2,-52 -2,-32 -2,-23 -1,-13 0,-2 Z"/>
  </g>
  <g id="bullet-char-template-10004" transform="scale(0.00048828125,-0.00048828125)">
   <path d="M 285,-33 C 182,-33 111,30 74,156 52,228 41,333 41,471 41,549 55,616 82,672 116,743 169,778 240,778 293,778 328,747 346,684 L 369,508 C 377,444 397,411 428,410 L 1163,1116 C 1174,1127 1196,1133 1229,1133 1271,1133 1292,1118 1292,1087 L 1292,965 C 1292,929 1282,901 1262,881 L 442,47 C 390,-6 338,-33 285,-33 Z"/>
  </g>
  <g id="bullet-char-template-9679" transform="scale(0.00048828125,-0.00048828125)">
   <path d="M 813,0 C 632,0 489,54 383,161 276,268 223,411 223,592 223,773 276,916 383,1023 489,1130 632,1184 813,1184 992,1184 1136,1130 1245,1023 1353,916 1407,772 1407,592 1407,412 1353,268 1245,161 1136,54 992,0 813,0 Z"/>
  </g>
  <g id="bullet-char-template-8226" transform="scale(0.00048828125,-0.00048828125)">
   <path d="M 346,457 C 273,457 209,483 155,535 101,586 74,649 74,723 74,796 101,859 155,911 209,963 273,989 346,989 419,989 480,963 531,910 582,859 608,796 608,723 608,648 583,586 532,535 482,483 420,457 346,457 Z"/>
  </g>
  <g id="bullet-char-template-8211" transform="scale(0.00048828125,-0.00048828125)">
   <path d="M -4,459 L 1135,459 1135,606 -4,606 -4,459 Z"/>
  </g>
  <g id="bullet-char-template-61548" transform="scale(0.00048828125,-0.00048828125)">
   <path d="M 173,740 C 173,903 231,1043 346,1159 462,1274 601,1332 765,1332 928,1332 1067,1274 1183,1159 1299,1043 1357,903 1357,740 1357,577 1299,437 1183,322 1067,206 928,148 765,148 601,148 462,206 346,322 231,437 173,577 173,740 Z"/>
  </g>
 </defs>
 <defs class="TextEmbeddedBitmaps"/>
 <g>
  <g id="id2" class="Master_Slide">
   <g id="bg-id2" class="Background"/>
   <g id="bo-id2" class="BackgroundObjects"/>
  </g>
 </g>
 <g class="SlideGroup">
  <g>
   <g id="container-id1">
    <g id="id1" class="Slide" clip-path="url(#presentation_clip_path)">
     <g class="Page">
      <g class="com.sun.star.drawing.PolyPolygonShape">
       <g id="id3">
        <rect class="BoundingBox" stroke="none" fill="none" x="221" y="305" width="95642" height="52475"/>
       </g>
      </g>
      <g class="com.sun.star.drawing.ClosedBezierShape">
       <g id="id4">
        <rect class="BoundingBox" stroke="none" fill="none" x="221" y="305" width="95640" height="52473"/>
        <path fill="rgb(221,221,221)" stroke="none" d="M 37814,343 C 37676,375 37495,398 37401,392 37313,387 37186,382 37125,382 36960,375 36535,513 36375,624 36281,690 36178,712 36089,690 35995,663 35945,679 35924,739 35901,789 35851,828 35814,828 35769,828 35693,878 35636,938 35581,999 35494,1048 35444,1048 35389,1048 35318,1087 35279,1130 35240,1175 35179,1214 35141,1214 35103,1214 35058,1252 35036,1297 35020,1340 34975,1379 34931,1379 34826,1379 34451,1782 34451,1892 34451,1942 34424,1986 34396,1986 34275,1986 33884,2471 33680,2878 33564,3109 33481,3308 33492,3324 33504,3336 33481,3429 33437,3534 33344,3772 33002,6053 33007,6423 33007,6483 32957,6732 32902,6974 32847,7217 32770,7603 32737,7828 32704,8054 32566,8677 32440,9207 32307,9736 32170,10403 32136,10689 32104,10971 32054,11252 32026,11307 31994,11362 31960,11511 31944,11638 31927,11759 31889,11913 31855,11974 31822,12029 31751,12282 31690,12531 31630,12778 31546,13048 31502,13126 31459,13203 31436,13286 31459,13308 31475,13324 31470,13396 31436,13468 31249,13853 31150,14118 31084,14388 31045,14553 30985,14752 30946,14829 30907,14907 30846,15127 30814,15320 30780,15513 30692,15800 30621,15960 30549,16125 30455,16438 30406,16665 30361,16896 30267,17227 30207,17403 30086,17723 30064,17822 29910,18577 29761,19306 29579,19680 29380,19680 29331,19680 29242,19730 29187,19791 29132,19851 29055,19901 29016,19901 28977,19901 28901,19945 28846,20006 28791,20061 28669,20127 28570,20143 28476,20166 28339,20242 28267,20308 28195,20380 28046,20468 27936,20502 27820,20540 27716,20595 27694,20623 27677,20651 27572,20711 27462,20761 27352,20805 27247,20866 27231,20887 27214,20915 27081,20992 26927,21058 26779,21125 26586,21230 26509,21285 26431,21340 26299,21400 26205,21422 26117,21438 25930,21527 25792,21610 25494,21791 24794,22106 24684,22106 24645,22106 24562,22145 24507,22188 24447,22232 24342,22271 24281,22271 24215,22271 24056,22342 23934,22436 23807,22525 23675,22602 23636,22602 23597,22602 23494,22651 23400,22712 23311,22772 23190,22822 23140,22822 23085,22822 23041,22845 23041,22872 23041,22900 22947,22921 22837,22921 22727,22921 22606,22955 22572,22993 22451,23153 22176,23307 21966,23335 21696,23368 21332,23495 21332,23550 21332,23577 21282,23593 21222,23593 21161,23593 21112,23566 21112,23538 21112,23456 20902,23472 20852,23556 20831,23593 20694,23682 20550,23753 20406,23820 20285,23920 20274,23968 20264,24035 20191,24062 19982,24073 19827,24078 19596,24123 19464,24167 19331,24217 19155,24256 19072,24256 18990,24256 18857,24316 18775,24393 18692,24471 18582,24531 18527,24531 18471,24531 18411,24547 18395,24565 18340,24620 17789,24801 17677,24807 17617,24807 17507,24845 17430,24883 17011,25110 16504,25247 16069,25247 15467,25247 15307,25490 15561,26036 15754,26461 15892,26571 16217,26571 16454,26571 16989,26367 17089,26235 17121,26190 17457,26125 17640,26130 17860,26130 18125,26025 18152,25915 18169,25837 18279,25805 18665,25750 18935,25705 19171,25650 19189,25622 19205,25595 19331,25567 19470,25556 19607,25551 19811,25490 19921,25423 20037,25358 20191,25302 20274,25302 20357,25302 20484,25265 20550,25215 20616,25171 20721,25121 20781,25110 21095,25050 21664,24817 21730,24723 21751,24696 21851,24680 21950,24686 22076,24696 22197,24652 22325,24558 22430,24481 22572,24421 22650,24421 22727,24421 22842,24382 22897,24338 22959,24293 23064,24256 23130,24256 23190,24256 23339,24178 23455,24090 23570,23996 23720,23925 23791,23925 23857,23925 23934,23897 23951,23870 23967,23836 24034,23815 24100,23815 24160,23815 24270,23765 24347,23705 24425,23643 24546,23593 24612,23593 24679,23593 24800,23545 24877,23483 24954,23423 25059,23373 25109,23373 25157,23373 25262,23296 25340,23208 25439,23087 25522,23042 25665,23042 25896,23042 26475,22756 26586,22580 26635,22508 26751,22436 26845,22415 26939,22397 27087,22332 27175,22271 27259,22211 27390,22161 27467,22161 27545,22161 27682,22083 27799,21968 27920,21852 28052,21775 28135,21775 28211,21775 28295,21736 28322,21687 28350,21637 28471,21576 28586,21555 28702,21532 28846,21493 28895,21472 29039,21411 29116,21648 29016,21841 28972,21923 28940,22040 28940,22100 28940,22155 28879,22447 28801,22751 28542,23771 28499,23968 28499,24090 28499,24156 28426,24426 28332,24696 28245,24966 28167,25270 28167,25368 28167,25468 28135,25611 28096,25688 28002,25865 27842,26361 27810,26553 27771,26802 27671,27198 27616,27315 27567,27431 27252,28534 27170,28914 27115,29140 27092,29200 26795,29829 26701,30027 26624,30225 26624,30270 26624,30314 26536,30595 26426,30897 26321,31201 26211,31515 26189,31592 26161,31670 26101,31812 26045,31912 25996,32017 25914,32226 25869,32381 25825,32535 25742,32739 25681,32832 25626,32921 25544,33147 25494,33329 25450,33505 25351,33775 25279,33930 25207,34079 25092,34365 25026,34564 24960,34762 24850,34994 24784,35087 24651,35264 24347,35876 24281,36107 24260,36184 24144,36421 24027,36636 23906,36851 23812,37071 23812,37132 23812,37187 23775,37286 23730,37342 23686,37402 23647,37524 23647,37606 23647,37711 23576,37844 23444,37997 23327,38125 23206,38279 23179,38334 23146,38395 23009,38466 22860,38505 22716,38544 22540,38621 22474,38681 22346,38791 21982,38919 21785,38919 21724,38919 21664,38951 21646,38995 21630,39040 21460,39095 21216,39127 20969,39166 20787,39221 20749,39276 20665,39387 20367,39481 20120,39475 19855,39470 19525,39591 19425,39734 19365,39817 19287,39855 19166,39850 18985,39839 18802,39894 18312,40115 18141,40186 17871,40252 17672,40264 17480,40280 17275,40312 17220,40340 17005,40456 16707,40572 16631,40572 16586,40572 16537,40627 16520,40687 16492,40792 16465,40804 16256,40770 16069,40742 16014,40754 15952,40836 15875,40952 15517,41074 15192,41101 15076,41106 14955,41140 14922,41172 14889,41206 14806,41234 14740,41234 14674,41234 14557,41284 14481,41344 14399,41410 14315,41460 14294,41454 14211,41449 13847,41614 13809,41675 13791,41703 13687,41730 13582,41730 13466,41730 13379,41763 13362,41813 13317,41923 13054,41994 12540,42033 12082,42066 11857,42160 11812,42336 11796,42403 11714,42441 11549,42463 11416,42474 11267,42529 11217,42579 11157,42639 11030,42666 10837,42666 10682,42666 10528,42689 10501,42716 10467,42750 10346,42794 10225,42826 9900,42904 9365,43114 9206,43224 9128,43274 8980,43334 8875,43356 8770,43378 8632,43433 8571,43471 8511,43510 8351,43560 8213,43581 8076,43604 7916,43654 7855,43693 7795,43736 7690,43769 7618,43769 7447,43769 6990,43979 6907,44100 6862,44160 6731,44210 6553,44233 6395,44254 6207,44320 6130,44381 6052,44436 5947,44486 5898,44486 5843,44486 5771,44525 5732,44569 5695,44618 5573,44651 5452,44651 5336,44651 5226,44679 5208,44706 5192,44734 5121,44761 5050,44761 4977,44761 4878,44811 4828,44866 4773,44926 4592,45015 4421,45065 4078,45169 3875,45241 3748,45319 3705,45346 3527,45434 3362,45516 3197,45594 2993,45715 2916,45793 2838,45864 2717,45930 2651,45946 2520,45974 2138,46234 2100,46328 2067,46404 1621,46856 1571,46856 1372,46856 452,48515 370,49034 347,49155 308,49364 281,49503 171,49993 203,50196 468,50720 606,50990 717,51244 717,51288 717,51333 805,51420 915,51481 1025,51548 1141,51674 1175,51763 1207,51856 1267,51928 1306,51928 1351,51928 1500,52010 1642,52109 2040,52380 2580,52628 2948,52710 3346,52799 5143,52799 5843,52710 6118,52678 6400,52605 6532,52539 6653,52474 6830,52424 6918,52429 7138,52440 7546,52369 7585,52308 7601,52280 7673,52259 7745,52259 7822,52259 7987,52209 8113,52154 8533,51966 8941,51818 9040,51818 9090,51818 9188,51768 9261,51708 9332,51646 9448,51596 9520,51596 9591,51596 9723,51558 9817,51514 9906,51465 10103,51404 10263,51376 10418,51343 10588,51283 10638,51239 10688,51194 10766,51156 10815,51156 10858,51156 10958,51111 11030,51051 11102,50996 11322,50869 11521,50775 11719,50676 11917,50566 11961,50521 12006,50484 12105,50434 12176,50411 12242,50390 12391,50313 12496,50246 12596,50175 12777,50086 12887,50048 13130,49970 13549,49734 13681,49601 13736,49546 13814,49503 13847,49503 13885,49503 14040,49386 14189,49254 14337,49116 14502,49006 14552,49006 14602,49006 14772,48945 14927,48868 15087,48791 15236,48730 15269,48730 15296,48730 15346,48686 15374,48631 15401,48576 15534,48455 15666,48366 15799,48279 16014,48119 16151,48009 16289,47898 16542,47744 16725,47661 16901,47584 17132,47446 17231,47353 17336,47264 17441,47186 17469,47186 17496,47186 17529,47115 17546,47033 17574,46906 17629,46856 17816,46785 17947,46729 18086,46691 18125,46691 18162,46691 18191,46653 18191,46608 18191,46564 18256,46486 18334,46431 18416,46376 18637,46184 18825,46008 19017,45825 19304,45616 19464,45534 19679,45429 19816,45308 19965,45093 20081,44926 20219,44778 20274,44756 20385,44711 21134,44045 21294,43846 21349,43775 21437,43703 21497,43686 21570,43665 21609,43604 21609,43510 21609,43416 21680,43301 21829,43169 21950,43059 22049,42926 22049,42871 22049,42821 22099,42733 22165,42678 22225,42629 22330,42485 22391,42364 22457,42243 22556,42094 22622,42028 22854,41796 23047,41543 23124,41366 23162,41266 23300,41057 23421,40902 23549,40742 23647,40584 23647,40545 23647,40506 23702,40401 23775,40312 23841,40230 23984,39976 24089,39756 24221,39475 24315,39349 24402,39326 24469,39310 24551,39260 24590,39216 24624,39172 24700,39139 24761,39139 24816,39139 24987,39079 25136,39001 25285,38924 25445,38864 25489,38864 25594,38864 26260,38532 26282,38466 26294,38444 26447,38422 26624,38422 26801,38422 26966,38395 26982,38367 26999,38340 27099,38312 27197,38312 27302,38312 27412,38279 27446,38235 27479,38196 27655,38146 27837,38125 28129,38091 28604,37959 28912,37821 28972,37794 29160,37744 29325,37706 29491,37667 29656,37617 29684,37595 29716,37574 29871,37535 30036,37512 30246,37485 30361,37435 30444,37342 30537,37231 30610,37210 30846,37210 31006,37210 31150,37187 31166,37160 31182,37132 31276,37099 31376,37082 31475,37066 31695,37016 31861,36967 32026,36917 32269,36879 32401,36879 32566,36879 32632,36856 32632,36796 32632,36686 33002,36520 33090,36592 33167,36659 33609,36614 33657,36542 33675,36515 33769,36492 33872,36492 33977,36492 34066,36460 34082,36416 34105,36366 34247,36327 34517,36305 34739,36284 34970,36245 35030,36222 35091,36195 35245,36146 35378,36107 35543,36052 35609,36002 35609,35931 35609,35810 35748,35744 35846,35820 35979,35925 36260,35952 36309,35865 36365,35765 37224,35534 37374,35584 37445,35605 37544,35584 37633,35529 37710,35474 37891,35424 38040,35417 38184,35407 38354,35369 38415,35341 38475,35307 38569,35280 38630,35280 38690,35280 38751,35247 38768,35204 38795,35131 39159,35071 39699,35044 39810,35037 39920,35016 39941,34994 39964,34966 40058,34950 40146,34950 40234,34950 40378,34889 40471,34811 40559,34735 40680,34674 40736,34674 40791,34674 40858,34646 40874,34619 40895,34580 41055,34569 41286,34586 41585,34607 41668,34596 41695,34536 41711,34486 41800,34454 41915,34454 42020,34454 42125,34431 42141,34399 42158,34371 42263,34344 42368,34344 42473,34344 42599,34321 42654,34294 42704,34266 42908,34216 43106,34177 43304,34145 43486,34095 43509,34067 43536,34045 43706,34040 43889,34056 44170,34079 44230,34067 44275,33990 44313,33924 44369,33902 44456,33924 44534,33946 44749,33902 44964,33825 45168,33747 45481,33671 45653,33654 45829,33632 45984,33594 46000,33566 46021,33539 46088,33516 46154,33516 46220,33516 46348,33477 46435,33434 46518,33390 46645,33351 46716,33351 46783,33351 46871,33317 46904,33274 46970,33191 47334,33125 47693,33130 47803,33130 47908,33109 47929,33075 47945,33047 48073,33020 48210,33020 48348,33020 48514,32992 48580,32954 48646,32921 48878,32882 49093,32877 49308,32871 49583,32839 49699,32805 49820,32772 49980,32745 50056,32745 50134,32745 50255,32684 50321,32612 50431,32491 50481,32480 50719,32507 50900,32530 51055,32507 51214,32447 51358,32386 51506,32364 51606,32386 51721,32414 51799,32397 51881,32326 51948,32260 52119,32210 52328,32187 52901,32132 53546,32017 53601,31967 53634,31940 53706,31917 53761,31917 53821,31917 53981,31885 54125,31841 54263,31796 54539,31730 54736,31697 54935,31659 55111,31604 55134,31570 55155,31537 55349,31510 55608,31510 55949,31505 56071,31482 56154,31411 56225,31345 56351,31311 56550,31311 56710,31311 56886,31290 56941,31256 56996,31229 57184,31190 57360,31169 57543,31151 57735,31119 57796,31091 57856,31069 58144,31002 58430,30954 58716,30897 58982,30837 59009,30815 59042,30794 59302,30760 59588,30739 59874,30716 60260,30661 60442,30611 60624,30567 60834,30529 60910,30529 60988,30529 61335,30462 61683,30391 62029,30314 62543,30236 62813,30215 63159,30187 63463,30126 63810,30000 64202,29861 64467,29812 64968,29767 65332,29740 65734,29691 65872,29664 66009,29630 66269,29591 66450,29575 66633,29564 66869,29525 66974,29492 67079,29465 67233,29437 67322,29437 67404,29437 67514,29415 67569,29387 67619,29360 67889,29305 68159,29272 68435,29234 68705,29184 68765,29156 68827,29134 69014,29101 69179,29090 69344,29074 69669,29024 69895,28980 70122,28930 70497,28880 70723,28864 70949,28847 71263,28809 71412,28776 71565,28749 71869,28699 72095,28665 72315,28632 72652,28555 72839,28500 73022,28445 73363,28385 73589,28362 73815,28346 74129,28307 74278,28280 74432,28252 74785,28214 75067,28197 75342,28175 75655,28136 75755,28108 75849,28081 76009,28058 76108,28058 76202,28058 76300,28031 76323,27998 76345,27960 76455,27948 76615,27965 76775,27982 76918,27965 77007,27921 77144,27843 78439,27673 78869,27673 78990,27673 79107,27651 79123,27628 79139,27601 79432,27562 79774,27546 80115,27525 80484,27486 80589,27452 80694,27425 80998,27397 81262,27397 81527,27397 81753,27376 81769,27348 81785,27320 82254,27282 82806,27260 83401,27237 83847,27193 83892,27161 83936,27122 84283,27095 84773,27088 85231,27077 85743,27040 85964,26990 86179,26946 86598,26912 86901,26912 87259,26918 87497,26896 87584,26846 87667,26807 87964,26768 88329,26758 89636,26720 90291,26686 90926,26631 91697,26565 93307,26560 93351,26620 93362,26647 93339,26797 93289,26956 93207,27237 93207,27248 93334,27381 93438,27491 93488,27507 93681,27480 93957,27436 94403,27226 94673,27012 94789,26918 94977,26830 95092,26813 95567,26736 96002,26168 95814,25871 95792,25837 95677,25727 95556,25633 95334,25457 95329,25457 94899,25490 94657,25512 93786,25540 92971,25551 92149,25567 91377,25601 91256,25628 91134,25661 90589,25695 90043,25711 89497,25727 88831,25777 88554,25826 88284,25876 87799,25926 87479,25937 86719,25965 85573,26058 84779,26157 84432,26196 83936,26235 83682,26235 83428,26240 83197,26256 83164,26278 83131,26295 82794,26345 82414,26383 82034,26416 81422,26477 81058,26516 80419,26576 80010,26626 79267,26736 79068,26768 78765,26797 78588,26802 78412,26807 78258,26830 78242,26857 78224,26880 78070,26901 77899,26901 77729,26901 77409,26940 77199,26983 76682,27100 76218,27166 76147,27138 76113,27127 75854,27155 75568,27210 74868,27331 74404,27386 73589,27452 73209,27486 72828,27530 72734,27562 72647,27591 72432,27628 72265,27646 71780,27701 71263,27788 71025,27871 70904,27910 70645,27955 70447,27976 70248,27992 69978,28042 69840,28086 69703,28125 69405,28175 69179,28197 68953,28219 68628,28274 68463,28319 68159,28401 68022,28429 67002,28577 66699,28621 66363,28687 66258,28721 66153,28754 65905,28792 65707,28804 65508,28815 65238,28859 65100,28907 64962,28957 64725,28996 64577,28996 64422,28996 64213,29024 64108,29057 63882,29122 63458,29200 62928,29272 62719,29300 62509,29337 62459,29360 62410,29376 62200,29415 61985,29449 61043,29575 60068,29740 59780,29817 59659,29851 59472,29879 59362,29879 59252,29879 58998,29927 58799,29989 58606,30049 58298,30104 58121,30104 57901,30110 57780,30142 57735,30197 57691,30259 57538,30291 57201,30314 56881,30336 56699,30375 56633,30435 56561,30496 56303,30556 55839,30611 54626,30766 54406,30810 54235,30931 54146,30991 54036,31030 53993,31019 53839,30959 52565,31146 51513,31394 51181,31471 50840,31532 50751,31532 50669,31532 50536,31570 50459,31620 50360,31686 50261,31702 50101,31675 49935,31647 49836,31664 49738,31725 49665,31775 49583,31796 49550,31775 49516,31757 49390,31780 49258,31830 49131,31879 48850,31940 48635,31967 48414,31995 48183,32056 48111,32105 48045,32155 47924,32194 47846,32194 47665,32194 47279,32331 47251,32409 47240,32441 47163,32452 47069,32430 46981,32414 46876,32425 46844,32452 46778,32507 46446,32557 45989,32596 45890,32606 45779,32640 45741,32679 45703,32717 45581,32745 45471,32745 45360,32745 45239,32784 45200,32827 45156,32877 45085,32899 45003,32877 44920,32855 44804,32887 44688,32960 44539,33047 44406,33075 44098,33075 43701,33075 43486,33120 43118,33274 43018,33317 42913,33340 42880,33324 42853,33307 42660,33340 42455,33406 42246,33466 42004,33516 41921,33516 41838,33516 41739,33560 41700,33610 41645,33681 41563,33704 41359,33692 41176,33687 41016,33720 40874,33792 40753,33852 40614,33902 40559,33902 40510,33902 40449,33930 40433,33962 40410,33996 40328,34001 40240,33985 40151,33969 40069,33974 40046,34007 40030,34040 39925,34067 39820,34067 39716,34067 39589,34090 39534,34117 39374,34195 39071,34277 38779,34321 38630,34337 38443,34387 38365,34426 38289,34465 38106,34509 37953,34525 37804,34541 37605,34596 37511,34641 37423,34690 37274,34729 37180,34729 37093,34729 36965,34767 36910,34811 36850,34856 36745,34895 36679,34895 36608,34895 36535,34922 36519,34950 36496,34982 36365,35005 36226,34999 35901,34989 35455,35087 35334,35197 35284,35241 35146,35280 35025,35280 34904,35280 34749,35319 34677,35369 34584,35435 34479,35451 34264,35429 34021,35407 33966,35417 33911,35506 33862,35577 33779,35611 33630,35611 33509,35611 33387,35644 33349,35694 33311,35737 33211,35776 33124,35776 33035,35776 32919,35799 32864,35826 32566,35986 32312,36062 31955,36101 31740,36129 31497,36174 31420,36206 31342,36234 31134,36289 30951,36327 30770,36361 30537,36426 30439,36471 30340,36515 30180,36549 30080,36549 29981,36549 29871,36576 29832,36614 29794,36652 29634,36697 29480,36719 28940,36791 28752,36840 28570,36967 28471,37034 28284,37105 28151,37127 27847,37176 27456,37304 27291,37414 27220,37457 27104,37485 27016,37469 26856,37435 26492,37524 26321,37634 26260,37672 26161,37706 26090,37706 26024,37706 25951,37727 25935,37761 25919,37789 25792,37816 25660,37816 25527,37816 25400,37844 25384,37871 25356,37915 25324,37910 25269,37865 25164,37782 25169,37716 25301,37457 25362,37336 25411,37187 25411,37121 25411,36972 25649,36482 25770,36382 25814,36344 25852,36256 25852,36179 25852,36107 25930,35897 26017,35710 26111,35529 26184,35335 26184,35280 26184,35220 26227,35142 26287,35104 26431,34999 26569,34707 26569,34492 26569,34381 26614,34250 26680,34177 26740,34106 26790,34012 26790,33962 26790,33914 26829,33797 26877,33709 26989,33505 27286,32690 27286,32590 27286,32551 27374,32331 27479,32105 27584,31879 27671,31654 27671,31597 27671,31549 27705,31444 27744,31366 27787,31290 27837,31146 27854,31047 27875,30947 27952,30739 28030,30572 28107,30412 28167,30215 28167,30137 28167,30060 28201,29961 28245,29922 28289,29879 28350,29696 28389,29515 28421,29337 28487,29062 28531,28914 28570,28759 28631,28506 28664,28340 28691,28175 28752,28003 28785,27960 28856,27871 28950,27646 29105,27177 29336,26471 29380,26267 29380,25953 29380,25650 29457,25396 29617,25198 29706,25087 29921,24332 29965,23980 29986,23815 30047,23583 30102,23472 30164,23357 30207,23175 30207,23060 30207,22806 30439,22133 30582,21973 30725,21808 30846,21482 30951,21003 31067,20446 31221,20187 31525,20033 31822,19885 32081,19675 32081,19586 32081,19553 32131,19503 32191,19487 32252,19471 32302,19432 32302,19405 32302,19382 32367,19333 32456,19300 32737,19178 33294,18876 33442,18755 33867,18418 33939,18368 34110,18330 34215,18307 34375,18203 34490,18076 34600,17961 34794,17801 34920,17723 35053,17652 35169,17552 35185,17508 35201,17465 35300,17382 35400,17332 35499,17282 35631,17195 35693,17133 36569,16296 36718,16163 36971,16015 37070,15953 37191,15827 37235,15728 37296,15601 37363,15546 37445,15546 37528,15546 37605,15486 37665,15381 37720,15287 37786,15215 37820,15215 37848,15215 38216,14862 38641,14427 39561,13496 39616,13434 39760,13181 39826,13071 39893,12972 39909,12954 39925,12938 40041,12768 40174,12569 40400,12217 40538,12029 40659,11891 40698,11852 40774,11714 40840,11588 40906,11461 40984,11357 41011,11357 41044,11357 41066,11296 41066,11224 41066,11009 41171,10794 41375,10584 41563,10386 41590,10309 41844,9356 41976,8826 42114,7949 42146,7359 42158,7117 42196,6858 42224,6781 42258,6698 42268,6213 42251,5568 42219,4118 42185,3876 41965,3143 41773,2509 41700,2366 41331,1935 41155,1737 40956,1494 40895,1407 40698,1130 40003,750 39330,547 39209,513 39060,464 38999,437 38939,414 38790,382 38669,364 38548,348 38360,327 38255,309 38150,298 37953,309 37814,343 Z M 38283,1709 C 38299,1737 38431,1765 38575,1765 38719,1770 38916,1814 39026,1875 39131,1930 39275,2002 39341,2036 39408,2068 39534,2201 39616,2327 39699,2459 39815,2597 39865,2636 39920,2674 39964,2757 39964,2818 39964,2873 40025,2978 40101,3044 40179,3109 40240,3198 40240,3248 40240,3292 40284,3381 40344,3441 40515,3639 40620,4344 40620,5403 40625,6451 40576,6858 40371,7509 40300,7746 40240,7994 40240,8061 40240,8132 40201,8258 40156,8347 40113,8429 40074,8589 40074,8694 40074,8798 40041,8948 39998,9031 39925,9179 39826,9582 39843,9664 39849,9686 39793,9834 39721,9994 39644,10154 39573,10348 39550,10436 39534,10518 39474,10634 39419,10689 39303,10806 39138,11119 39138,11229 39138,11268 39099,11302 39055,11302 39010,11302 38955,11367 38939,11451 38916,11538 38829,11682 38735,11776 38646,11869 38548,12002 38514,12062 38475,12128 38316,12366 38161,12597 38001,12823 37869,13038 37869,13066 37869,13093 37781,13176 37676,13242 37571,13313 37445,13446 37390,13544 37340,13638 37241,13748 37169,13787 37098,13826 37043,13887 37043,13931 37043,13969 36981,14036 36905,14068 36828,14102 36766,14173 36766,14234 36766,14289 36734,14333 36701,14333 36663,14333 36414,14542 36150,14802 35885,15061 35654,15271 35631,15271 35581,15271 35460,15381 35141,15695 35014,15827 34870,15932 34826,15932 34782,15932 34694,15987 34627,16053 34562,16125 34441,16252 34352,16345 34264,16433 34055,16593 33884,16692 33712,16797 33536,16941 33487,17012 33442,17083 33366,17145 33327,17145 33289,17145 33145,17243 33012,17371 32710,17646 32319,17916 32219,17916 32175,17916 32115,17966 32081,18026 31955,18270 31779,17998 31861,17680 31944,17371 32197,16406 32246,16235 32269,16141 32340,15943 32401,15795 32572,15370 32831,14532 32991,13892 33074,13572 33172,13226 33211,13121 33366,12718 33824,11053 33984,10309 34049,9989 34170,9471 34247,9152 34325,8832 34402,8496 34419,8407 34567,7641 34672,6913 34727,6286 34876,4472 35103,3408 35444,2867 35593,2636 36094,2261 36260,2261 36299,2261 36326,2239 36326,2206 36326,2146 36729,1930 36850,1930 36894,1930 36933,1897 36933,1853 36933,1798 37038,1765 37308,1737 37511,1720 37715,1693 37759,1688 37946,1643 38250,1660 38283,1709 Z M 22215,40109 C 22215,40175 22192,40252 22160,40269 22131,40285 22016,40445 21906,40616 21790,40787 21669,40957 21636,40985 21597,41019 21504,41167 21426,41321 21349,41476 21245,41636 21189,41680 21140,41724 20996,41890 20880,42044 20765,42204 20632,42336 20589,42336 20539,42336 20506,42391 20506,42469 20506,42556 20467,42618 20401,42639 20340,42656 20274,42716 20257,42771 20241,42833 20142,42931 20031,43003 19927,43075 19827,43190 19811,43256 19795,43323 19729,43395 19674,43411 19619,43433 19569,43471 19569,43505 19569,43576 19199,43935 19122,43935 19095,43935 19072,43968 19072,44011 19072,44111 18681,44448 18434,44569 18317,44624 18201,44740 18135,44871 18075,44993 17992,45093 17947,45093 17910,45093 17805,45153 17722,45230 17634,45301 17512,45368 17446,45379 17380,45390 17331,45445 17320,45523 17309,45594 17242,45671 17176,45699 17105,45726 16977,45809 16895,45886 16812,45963 16696,46029 16647,46029 16597,46029 16526,46090 16487,46161 16449,46234 16266,46388 16090,46504 15914,46625 15765,46740 15765,46763 15765,46785 15694,46834 15600,46861 15511,46895 15435,46955 15435,46994 15435,47038 15390,47083 15330,47104 15275,47121 15170,47181 15104,47243 15032,47303 14922,47353 14850,47353 14779,47353 14651,47419 14569,47495 14200,47843 13951,48014 13699,48096 13544,48151 13384,48234 13334,48284 13285,48334 13141,48433 13015,48510 12887,48588 12695,48714 12585,48796 12475,48885 12364,48951 12336,48951 12304,48951 12176,49023 12050,49105 11929,49188 11725,49288 11597,49325 11476,49359 11300,49464 11212,49558 11119,49651 10991,49723 10908,49723 10831,49723 10721,49773 10666,49833 10611,49894 10517,49943 10462,49943 10407,49943 10263,49993 10142,50054 10021,50114 9872,50164 9806,50164 9746,50164 9618,50224 9531,50301 9442,50373 9277,50450 9161,50466 9051,50489 8880,50539 8781,50583 8687,50626 8538,50660 8450,50660 8362,50660 8268,50681 8241,50709 8141,50803 7441,51040 7150,51079 6990,51100 6665,51178 6422,51250 5121,51641 3787,51596 2783,51123 2326,50908 2078,50665 1962,50329 1836,49933 1825,49448 1951,49448 2028,49448 2095,49288 2095,49100 2095,48929 2541,47943 2696,47771 2948,47490 3280,47186 3362,47159 3412,47143 3478,47060 3511,46966 3572,46801 3600,46779 3870,46724 3952,46701 4062,46641 4117,46586 4245,46454 4498,46328 4741,46278 4845,46255 5000,46189 5082,46134 5160,46074 5247,46029 5281,46029 5308,46029 5363,45996 5396,45958 5430,45914 5562,45853 5688,45814 5821,45776 5953,45720 5986,45693 6063,45626 6868,45368 6983,45368 7033,45368 7127,45324 7188,45269 7255,45214 7413,45125 7552,45070 7690,45015 7926,44910 8076,44839 8230,44768 8378,44706 8412,44706 8445,44706 8571,44656 8698,44596 8820,44535 8973,44486 9028,44486 9090,44486 9167,44448 9206,44404 9243,44359 9343,44320 9421,44320 9503,44320 9718,44233 9900,44123 10076,44011 10325,43913 10440,43901 10561,43885 10727,43835 10810,43791 10892,43748 11013,43714 11074,43714 11130,43714 11339,43631 11537,43526 11730,43423 12034,43311 12210,43279 12386,43245 12557,43196 12590,43174 12624,43146 12761,43086 12899,43036 13036,42986 13296,42888 13477,42810 13660,42733 13902,42666 14012,42666 14122,42666 14250,42634 14287,42595 14371,42513 14800,42364 15120,42309 15247,42286 15324,42248 15324,42199 15324,42138 15390,42115 15539,42115 15655,42115 15776,42083 15809,42044 15842,42011 16002,41918 16174,41840 16344,41769 16481,41675 16481,41636 16481,41586 16565,41564 16735,41564 17005,41564 17331,41493 17622,41366 17716,41321 17826,41289 17871,41289 17915,41289 17997,41256 18059,41211 18114,41167 18219,41145 18290,41162 18356,41179 18450,41162 18489,41129 18599,41035 19127,40847 19276,40847 19342,40847 19409,40826 19425,40797 19442,40770 19552,40732 19662,40710 19772,40687 20026,40600 20219,40511 20412,40429 20721,40312 20909,40264 21095,40209 21327,40131 21415,40087 21614,39982 21922,39927 22094,39955 22176,39971 22215,40015 22215,40109 Z"/>
       </g>
      </g>
      <g class="com.sun.star.drawing.PolyPolygonShape">
       <g id="id5">
        <rect class="BoundingBox" stroke="none" fill="none" x="30749" y="21625" width="49757" height="12314"/>
       </g>
      </g>
      <g class="com.sun.star.drawing.ClosedBezierShape">
       <g id="id6">
        <rect class="BoundingBox" stroke="none" fill="none" x="30750" y="21625" width="49754" height="12313"/>
        <path fill="rgb(221,221,221)" stroke="none" d="M 64609,21692 C 64339,21721 64004,21775 63868,21810 63731,21846 63479,21907 63303,21944 63128,21986 62850,22081 62687,22155 62523,22229 62354,22292 62315,22294 62272,22295 62097,22385 61924,22492 61745,22604 61545,22711 61473,22730 61403,22749 61192,22873 61012,23000 60829,23128 60563,23301 60423,23381 60119,23545 59668,23969 59445,24296 59362,24428 59238,24553 59173,24576 59113,24605 58918,24718 58750,24829 58480,25008 58415,25085 58260,25421 58162,25633 58085,25838 58087,25882 58094,26137 57664,26694 57299,26892 56550,27310 56073,27553 56018,27554 55979,27555 55893,27607 55823,27668 55753,27734 55659,27768 55627,27758 55588,27744 55413,27807 55239,27898 55067,27994 54890,28068 54853,28069 54814,28070 54667,28119 54525,28180 54089,28359 53198,28637 52765,28718 52272,28814 51324,28842 50864,28774 50326,28694 49914,28498 49751,28252 49676,28130 49563,27989 49494,27938 49426,27882 49374,27804 49373,27755 49366,27707 49316,27538 49251,27379 49108,27014 49093,26663 49209,26152 49326,25630 49440,25375 49711,25041 49909,24795 50611,24294 50760,24289 50793,24289 50874,24254 50939,24209 51134,24086 51885,23920 52102,23951 52207,23970 52363,24039 52449,24116 52538,24189 52650,24276 52707,24313 52763,24348 52815,24421 52828,24480 52904,24809 53028,25040 53219,25226 53344,25340 53474,25423 53512,25405 53555,25389 53654,25401 53739,25430 53867,25475 53938,25458 54160,25334 54313,25243 54467,25099 54537,24990 54630,24816 54635,24768 54574,24561 54537,24429 54465,24276 54420,24214 54379,24156 54338,24071 54337,24025 54333,23890 53949,23389 53689,23173 53108,22692 52728,22549 52088,22567 51674,22580 50869,22753 50750,22853 50719,22880 50633,22951 50563,23013 50494,23074 50368,23125 50285,23128 50208,23130 49989,23206 49805,23303 49620,23394 49446,23473 49419,23474 49391,23474 49358,23508 49343,23550 49328,23594 49199,23699 49053,23784 48814,23930 48273,24469 48153,24691 48126,24746 48041,24893 47974,25023 47906,25154 47838,25266 47816,25284 47801,25300 47721,25448 47644,25609 47551,25820 47489,26102 47440,26545 47358,27300 47311,27383 46941,27394 46611,27404 46236,27628 46014,27944 45909,28092 45758,28225 45610,28293 45481,28355 45355,28428 45340,28457 45299,28532 44758,28884 44463,29032 44339,29094 44220,29188 44205,29242 44190,29291 44026,29387 43836,29462 43651,29531 43461,29628 43413,29667 43370,29711 43196,29791 43031,29854 42868,29913 42590,30043 42411,30139 42233,30242 41976,30349 41840,30381 41703,30417 41495,30466 41374,30496 40805,30641 40239,30556 39956,30292 39791,30136 39763,30073 39768,29881 39770,29624 39873,29322 40036,29103 40329,28720 40880,27754 40908,27580 40959,27259 40833,26915 40561,26657 40425,26533 40261,26398 40194,26368 40004,26283 39630,26314 39386,26445 39168,26563 38854,26932 38768,27184 38743,27254 38694,27315 38673,27315 38645,27317 38583,27430 38531,27570 38485,27717 38382,27975 38300,28155 38222,28333 38115,28598 38062,28739 38019,28884 37886,29097 37785,29217 37679,29333 37529,29524 37445,29649 37365,29769 37247,29889 37176,29918 37111,29948 37020,30036 36979,30117 36937,30198 36840,30298 36764,30338 36585,30433 36269,30742 36147,30928 36090,31024 36009,31081 35926,31083 35854,31086 35795,31108 35795,31129 35799,31258 35040,31911 34886,31916 34859,31917 34810,31949 34777,31993 34650,32152 33955,32338 33449,32347 32820,32356 32662,32285 32576,31946 32452,31458 32427,31009 32499,30607 32560,30284 32607,30181 32779,30001 32891,29879 33010,29779 33031,29778 33059,29778 33139,29691 33201,29587 33314,29428 33322,29364 33281,29119 33214,28667 33137,28515 32872,28293 32452,27942 31947,27972 31577,28379 31316,28664 31199,28956 31017,29731 30929,30102 30840,30458 30814,30517 30737,30728 30725,31621 30800,31901 30836,32045 30892,32262 30919,32378 30982,32676 31329,33242 31499,33340 31582,33386 31671,33447 31700,33477 31756,33536 32136,33685 32649,33857 32950,33960 33975,33962 34155,33866 34204,33838 34395,33757 34574,33688 34754,33618 34940,33537 34982,33510 35025,33482 35156,33420 35265,33368 35375,33317 35502,33217 35551,33147 35604,33060 35685,33015 35785,33011 35890,33008 36024,32918 36249,32703 36421,32538 36592,32400 36637,32398 36736,32396 37091,32070 37089,31978 37086,31893 37415,31627 37531,31623 37580,31622 37629,31583 37644,31541 37680,31448 38225,31267 38347,31307 38392,31321 38467,31394 38507,31456 38548,31536 38784,31667 39119,31812 39649,32038 39660,32042 40455,32067 41063,32087 41343,32073 41611,32012 41995,31926 42741,31588 42851,31452 42889,31408 42999,31334 43096,31294 43194,31261 43346,31169 43431,31103 43524,31037 43654,30958 43731,30934 43808,30912 43905,30859 43948,30821 43991,30782 44175,30697 44356,30632 44536,30569 44688,30489 44699,30457 44709,30424 44768,30396 44829,30394 44895,30392 45079,30296 45241,30179 45603,29923 45609,29923 45893,29797 46023,29746 46143,29672 46163,29639 46231,29526 46465,29402 46690,29357 46810,29332 47110,29201 47360,29059 L 47810,28805 47966,28908 C 48051,28964 48221,29108 48340,29233 48630,29536 49110,29894 49215,29892 49259,29889 49398,29934 49520,29984 49924,30161 52175,30232 52750,30093 52920,30051 53230,29923 53377,29839 53480,29783 53990,29677 54018,29703 54029,29713 54123,29673 54225,29617 54545,29437 54600,29413 54672,29412 54710,29411 54808,29374 54890,29329 54972,29286 55119,29232 55217,29209 55600,29122 56119,28931 56303,28797 56410,28724 56552,28645 56623,28632 56782,28595 57004,28450 57115,28308 57163,28248 57260,28187 57333,28174 57403,28160 57534,28104 57627,28048 57924,27868 58163,27914 58497,28209 58660,28354 58897,28518 59025,28573 59657,28859 60563,28933 61293,28758 61527,28703 61813,28640 61917,28627 62180,28588 63288,28202 63390,28118 63433,28079 63629,27989 63827,27914 64023,27844 64333,27712 64518,27622 64703,27530 64877,27455 64899,27455 64987,27453 65888,26955 66044,26828 66131,26757 66271,26650 66358,26599 66536,26488 66661,26409 66888,26253 67131,26085 67484,26097 67914,26277 68372,26472 68733,26573 69198,26629 69652,26690 71052,26649 71266,26573 71352,26544 71549,26500 71698,26480 72967,26299 73449,26194 74121,25977 74459,25865 74776,25775 74821,25774 74864,25773 74947,25749 75001,25720 75049,25688 75442,25548 75875,25401 76306,25255 76747,25081 76855,25025 77197,24839 77465,24735 77592,24731 77658,24729 77817,24678 77936,24619 78061,24563 78246,24493 78345,24469 78448,24444 78607,24370 78693,24304 78785,24236 78963,24136 79100,24073 79236,24010 79420,23903 79511,23836 79603,23764 79701,23708 79733,23706 79761,23705 79860,23634 79945,23540 80035,23446 80161,23374 80243,23371 80392,23368 80508,23193 80502,22989 80498,22873 80405,22859 80148,22941 80055,22976 79842,23041 79677,23100 79513,23151 79268,23218 79130,23243 78993,23275 78775,23334 78638,23385 78502,23434 78147,23544 77846,23634 77546,23718 76933,23916 76481,24069 76032,24226 75502,24398 75304,24445 74254,24711 73937,24785 73633,24820 73453,24848 72987,24941 72593,25039 71422,25324 70437,25406 70089,25245 69983,25195 69742,25010 69542,24829 69339,24643 69057,24443 68917,24376 68564,24210 68342,23940 68237,23546 68188,23373 68111,23178 68064,23119 68018,23063 67983,22973 67982,22918 67976,22694 67202,22124 66504,21829 66231,21714 65406,21594 65159,21632 65131,21634 64883,21662 64609,21692 Z M 65803,22891 C 65831,22918 65898,22936 65958,22935 66113,22930 66638,23374 66783,23626 66928,23890 66941,24093 66844,24394 66738,24713 66416,25214 66269,25278 66203,25311 66031,25434 65881,25555 65736,25678 65513,25813 65393,25848 65273,25888 65153,25952 65121,25990 65052,26077 64443,26400 64333,26403 64289,26404 64067,26502 63843,26625 63458,26829 62592,27159 62234,27234 61802,27332 60619,27414 60502,27364 60457,27339 60300,27280 60160,27230 59954,27150 59898,27105 59867,26972 59823,26782 59935,26307 60053,26208 60095,26169 60132,26050 60128,25944 60117,25554 60459,24816 60658,24800 60674,24799 60765,24733 60852,24645 61125,24380 61438,24143 61639,24045 61748,23989 61833,23928 61833,23900 61832,23879 61877,23856 61932,23855 61982,23848 62122,23785 62242,23711 62360,23634 62513,23550 62578,23520 62638,23491 62707,23436 62729,23409 62744,23376 62815,23348 62882,23346 62953,23344 63050,23309 63110,23264 63230,23186 63699,23028 64039,22960 64726,22823 65672,22789 65803,22891 Z"/>
       </g>
      </g>
     </g>
    </g>
   </g>
  </g>
 </g>
</svg>